<svg xmlns="http://www.w3.org/2000/svg" xmlns:xlink="http://www.w3.org/1999/xlink" id="Layer_1" data-name="Layer 1" viewBox="0 0 128.01 128.01">
  <title>icon_TeamCity</title>
  <g>
    <polygon points="42.79 41.63 31.99 41.63 31.99 34.63 61.29 34.63 61.29 41.63 50.59 41.63 50.59 69.22 42.79 69.22 42.79 41.63" fill="#fff"/>
    <path d="M61.29,52h0c0-10,7.4-18.1,18.1-18.1,6.5,0,10.5,2.2,13.7,5.4l-4.9,5.6c-2.7-2.4-5.4-3.9-8.9-3.9-5.8,0-10.1,4.9-10.1,10.8v0.1c0,6,4.1,10.9,10.1,10.9,4,0,6.4-1.6,9.1-4.1l4.9,4.9c-3.6,3.8-7.5,6.2-14.2,6.2A17.41,17.41,0,0,1,61.29,52" fill="#fff"/>
    <rect x="31.99" y="87.93" width="29.3" height="5.3" fill="#fff"/>
  </g>
</svg>